<svg width="200" height="200" xmlns="http://www.w3.org/2000/svg">
  <defs>
    <clipPath id="clip-path" transform="translate(-88.32 -50.29)">
      <rect id="svg_1" class="cls-1" x="209.72" y="798.23" width="49.52" height="45.29" fill="none" />
    </clipPath>
  </defs>
  <g>
    <title>Layer 1</title>
    <g stroke="null" id="svg_2">
      <path stroke="null" id="svg_3" class="cls-3" d="m81.63149,86.8917l0,0a3.31182,3.31182 0 0 0 2.89611,-1.59355l2.7714,-4.9608l0,0l2.27255,-3.9631l0.11086,-0.194l0,0l7.23334,-12.596a3.2841,3.2841 0 0 1 5.69522,0l4.84994,8.46662a3.29796,3.29796 0 0 0 2.85454,1.64898l0,0a3.31182,3.31182 0 0 0 2.89611,-5.03008l-10.55902,-18.40207a3.2841,3.2841 0 0 0 -5.69522,0l-18.1665,31.64935a3.31182,3.31182 0 0 0 2.84068,4.97466z" fill="#51b957" />
      <path stroke="null" id="svg_4" class="cls-3" d="m135.59058,93.51533l-65.36338,0a3.31182,3.31182 0 0 1 -2.85454,-4.97466l29.62623,-51.52026a3.2841,3.2841 0 0 1 5.69522,0l21.97717,38.28684a3.32568,3.32568 0 0 1 -2.85454,4.97466l-24.94257,0a3.31182,3.31182 0 0 0 -2.85454,1.66284l0,0a3.31182,3.31182 0 0 0 2.85454,4.9608l36.34686,0a3.29796,3.29796 0 0 0 2.84068,-4.9608l-30.74864,-53.65423a3.27025,3.27025 0 0 0 -2.84068,-1.64898l-5.19637,0a3.29796,3.29796 0 0 0 -2.85454,1.64898l-35.79258,62.35642a3.35339,3.35339 0 0 0 0,3.31182l2.60511,4.51738a3.2841,3.2841 0 0 0 2.84068,1.66284l71.58517,0a3.2841,3.2841 0 0 0 2.85454,-1.66284l0,0a3.31182,3.31182 0 0 0 -2.92382,-4.9608z" fill="#51b957" />
      <path stroke="null" id="svg_5" class="cls-3" d="m136.03401,68.66976l6.92849,12.04172a3.2841,3.2841 0 0 0 5.69522,0l0,0a3.29796,3.29796 0 0 0 0,-3.31182l-6.92849,-12.04172a3.29796,3.29796 0 0 0 -5.70908,0l0,0a3.33953,3.33953 0 0 0 0.01386,3.31182z" fill="#51b957" />
      <path stroke="null" id="svg_6" class="cls-3" d="m114.74968,31.60234l2.25869,3.92153a3.2841,3.2841 0 0 0 5.70908,0l0,0a3.35339,3.35339 0 0 0 0,-3.31182l-2.25869,-3.92153a3.27025,3.27025 0 0 0 -2.85454,-1.64898l0,0a3.31182,3.31182 0 0 0 -2.85454,4.9608z" fill="#51b957" />
      <path stroke="null" id="svg_7" class="cls-3" d="m124.61585,48.785l3.81067,6.63749a3.29796,3.29796 0 0 0 5.70908,0l0,0a3.35339,3.35339 0 0 0 0,-3.31182l-3.81067,-6.63749a3.2841,3.2841 0 0 0 -5.70908,0l0,0a3.35339,3.35339 0 0 0 0,3.31182z" fill="#51b957" />
      <path stroke="null" id="svg_8" class="cls-3" d="m127.9831,106.76261l-7.80148,0a3.31182,3.31182 0 0 0 -2.85454,4.9608l0,0a3.32568,3.32568 0 0 0 2.85454,1.64898l7.80148,0a3.31182,3.31182 0 0 0 2.85454,-1.64898l0,0a3.31182,3.31182 0 0 0 -2.85454,-4.9608z" fill="#51b957" />
      <path stroke="null" id="svg_9" class="cls-3" d="m104.96665,106.76261l0,0a3.31182,3.31182 0 0 0 -2.85454,4.9608l0,0a3.2841,3.2841 0 0 0 2.84068,1.64898l0,0a3.31182,3.31182 0 0 0 2.85454,-4.9608l0,0a3.31182,3.31182 0 0 0 -2.84068,-1.64898z" fill="#51b957" />
      <path stroke="null" id="svg_10" class="cls-3" d="m74.994,48.77114l9.85231,-17.1688a3.31182,3.31182 0 0 0 -2.85454,-4.9608l0,0a3.25639,3.25639 0 0 0 -2.84068,1.64898l-9.86617,17.1688a3.29796,3.29796 0 0 0 0,3.31182l0,0a3.2841,3.2841 0 0 0 5.70908,0z" fill="#51b957" />
      <path stroke="null" id="svg_11" class="cls-3" d="m56.66121,80.71148l10.7253,-18.69307a3.27025,3.27025 0 0 0 0,-3.29796l0,0a3.2841,3.2841 0 0 0 -5.69522,0l-10.7253,18.69307a3.29796,3.29796 0 0 0 0,3.31182l0,0a3.2841,3.2841 0 0 0 5.69522,-0.01386z" fill="#51b957" />
      <path stroke="null" id="svg_12" class="cls-3" d="m89.76554,106.76261l-18.15265,0a3.31182,3.31182 0 0 0 -2.85454,4.9608l0,0a3.2841,3.2841 0 0 0 2.84068,1.64898l18.15265,0a3.31182,3.31182 0 0 0 2.85454,-4.9608l0,0a3.2841,3.2841 0 0 0 -2.84068,-1.64898z" fill="#51b957" />
      <path stroke="null" id="svg_13" class="cls-4" d="m46.4209,139.92237l-23.2243,0a3.32568,3.32568 0 0 0 -3.32568,3.32568l0,0l0,26.57769a3.32568,3.32568 0 0 0 3.32568,3.31182l0,0a3.31182,3.31182 0 0 0 3.31182,-3.31182l0,-3.06239a3.31182,3.31182 0 0 1 3.32568,-3.31182l9.94931,0a3.31182,3.31182 0 0 1 3.31182,3.31182l0,3.06239a3.31182,3.31182 0 0 0 3.32568,3.31182l0,0a3.31182,3.31182 0 0 0 3.31182,-3.31182l0,-26.57769a3.31182,3.31182 0 0 0 -3.31182,-3.32568zm-3.32568,13.53827a3.31182,3.31182 0 0 1 -3.31182,3.31182l-9.94931,0a3.31182,3.31182 0 0 1 -3.32568,-3.31182l0,-3.58896a3.31182,3.31182 0 0 1 3.32568,-3.31182l9.94931,0a3.31182,3.31182 0 0 1 3.31182,3.31182l0,3.58896z" fill="#4a4a4a" />
      <path stroke="null" id="svg_14" class="cls-4" d="m106.69878,169.82573a3.32568,3.32568 0 0 1 -6.63749,0l0,-26.57769a3.31182,3.31182 0 0 1 3.31182,-3.32568l33.17361,0a3.31182,3.31182 0 0 1 3.32568,3.32568l0,26.57769a3.32568,3.32568 0 0 1 -6.63749,0l0,-19.95405a3.31182,3.31182 0 0 0 -3.31182,-3.31182l-3.32568,0a3.31182,3.31182 0 0 0 -3.27025,3.31182l0,19.95405a3.32568,3.32568 0 0 1 -6.63749,0l0,-19.95405a3.31182,3.31182 0 0 0 -3.31182,-3.31182l-3.32568,0a3.31182,3.31182 0 0 0 -3.35339,3.31182l0,19.95405z" fill="#4a4a4a" />
      <path stroke="null" id="svg_15" class="cls-4" d="m86.77243,139.92237l-23.48758,0a3.31182,3.31182 0 0 0 -3.32568,3.32568l0,26.57769a3.31182,3.31182 0 0 0 3.32568,3.31182l23.48758,0a3.31182,3.31182 0 0 0 3.29796,-3.31182l0,0a3.32568,3.32568 0 0 0 -3.32568,-3.32568l-16.83623,0a3.31182,3.31182 0 0 1 -3.31182,-3.31182l0,-13.31656a3.31182,3.31182 0 0 1 3.31182,-3.31182l10.24031,0a3.31182,3.31182 0 0 1 3.31182,3.31182l0,0a3.32568,3.32568 0 1 0 6.63749,0l0,-6.62364a3.31182,3.31182 0 0 0 -3.32568,-3.32568z" fill="#4a4a4a" />
      <path stroke="null" id="svg_16" class="cls-4" d="m149.80785,143.24804l0,0a3.31182,3.31182 0 0 1 3.31182,-3.32568l23.2243,0a3.32568,3.32568 0 0 1 3.32568,3.32568l0,0a3.32568,3.32568 0 0 1 -3.32568,3.31182l-16.62838,0a3.31182,3.31182 0 0 0 -3.31182,3.31182l0,0a3.31182,3.31182 0 0 0 3.31182,3.32568l16.62838,0a3.32568,3.32568 0 0 1 3.32568,3.31182l0,0a3.33953,3.33953 0 0 1 -3.32568,3.32568l-16.62838,0a3.31182,3.31182 0 0 0 -3.31182,3.31182l0,0a3.31182,3.31182 0 0 0 3.31182,3.31182l16.62838,0a3.33953,3.33953 0 0 1 3.32568,3.32568l0,0a3.32568,3.32568 0 0 1 -3.32568,3.31182l-23.2243,0a3.31182,3.31182 0 0 1 -3.31182,-3.31182l0,-26.53612z" fill="#4a4a4a" />
      <g stroke="null" id="Cut_line" data-name="Cut line">
        <path stroke="#2e3192" id="svg_17" class="cls-5" d="m176.34397,120.05145l-14.21726,0a5.61208,5.61208 0 0 1 -4.87766,-8.41119l12.99785,-22.64231a19.98177,19.98177 0 0 0 0,-19.88477l-30.08351,-52.42096a19.77391,19.77391 0 0 0 -17.11337,-9.93546l-46.46246,0a19.76006,19.76006 0 0 0 -17.11337,9.93546l-30.08351,52.42096a19.98177,19.98177 0 0 0 0,19.88477l12.99785,22.62845a5.61208,5.61208 0 0 1 -4.87766,8.41119l-14.31426,0a23.18273,23.18273 0 0 0 -23.19659,23.21044l0,26.57769a23.19659,23.19659 0 0 0 23.19659,23.19659l153.14736,0a23.19659,23.19659 0 0 0 23.19659,-23.19659l0,-26.57769a23.18273,23.18273 0 0 0 -23.19659,-23.19659z" fill="none" stroke-miterlimit="10" stroke-width="0.5px" />
      </g>
    </g>
  </g>
</svg>